<svg width="222" height="152" viewBox="0 0 222 152" fill="none" xmlns="http://www.w3.org/2000/svg">
<path d="M14.6837 34.2133C15.9066 26.0626 16.8118 20.0423 18.1036 15.4488C19.3878 10.8823 21.0232 7.84812 23.6306 5.6027C26.2381 3.35728 29.4813 2.19022 34.1878 1.59779C38.9221 1.00185 45.0101 1 53.252 1H111H168.746C176.988 1 183.075 1.00185 187.81 1.59777C192.516 2.19019 195.759 3.35723 198.367 5.60259C200.974 7.84796 202.61 10.8821 203.894 15.4484C205.186 20.0419 206.091 26.0621 207.314 34.2126L218.118 106.213C219.725 116.922 220.912 124.848 220.965 130.969C221.017 137.062 219.939 141.185 217.172 144.398C214.405 147.611 210.488 149.289 204.455 150.141C198.394 150.998 190.379 151 179.55 151H111H42.4493C31.6205 151 23.6055 150.998 17.5446 150.141C11.5116 149.289 7.59443 147.612 4.82733 144.398C2.06024 141.185 0.98287 137.062 1.03497 130.97C1.08731 124.849 2.27421 116.922 3.88096 106.213L14.6837 34.2133Z" fill="#FAF4EB" stroke="#D8C7B5" stroke-width="2"/>
</svg>
