<svg width="1176" height="315" viewBox="0 0 1176 315" fill="none" xmlns="http://www.w3.org/2000/svg">
<path d="M194.704 18C392.586 24.9266 590.901 26.9846 788.775 34.1103C865.419 36.8703 942.52 39.4252 1018.81 44.4789C1019.18 44.5038 1074.58 46.3753 1063.68 54.6246C1054.18 61.8101 1027.52 64.8601 1013.44 66.8884C975.781 72.3138 940.689 69.0401 902.829 65.3276C831.196 58.3035 760.086 48.8559 687.586 44.8134C585.728 39.134 481.57 41.0959 379.662 44.9806C299.661 48.0302 219.869 53.1449 140.818 60.5893C103.194 64.1324 54.606 67.0747 20.4841 77.8703C7.31453 82.0369 50.0729 82.8397 65.2546 82.5529C133.77 81.2584 202.198 78.5437 270.673 76.7554C495.084 70.8945 723.611 64.0283 948.106 72.0728C966.147 72.7192 1020.95 75.3203 1040.48 76.7554C1049.95 77.4513 1073.66 79.0112 1083.84 82.9989C1105.07 91.3213 1064.82 94.4889 1059.93 94.5939C1029.55 95.2457 998.58 93.7968 968.364 92.364C884.547 88.3895 801.169 84.1988 716.96 83.3891C522.096 81.5152 326.513 101.861 136.969 125.198C119.483 127.351 103.817 129.367 86.8296 132.055C81.7325 132.861 67.7639 134.207 72.345 135.678C81.5875 138.645 93.6529 137.016 104.353 137.016C137.461 137.016 158.938 136.187 193.59 134.619C408.484 124.893 621.576 111.446 837.496 109.255C920.51 108.412 1004.28 108.764 1087.08 112.488C1106.12 113.345 1161.59 116.539 1143.09 119.178C1114.1 123.314 1075.7 120.254 1046.66 119.568C976.579 117.912 906.698 114.51 836.584 113.045C629.826 108.726 426.466 111.874 223.066 134.229C176.055 139.395 118.112 143.981 76.7005 158.924C53.5766 167.267 64.8709 172.862 87.7412 173.919C129.578 175.854 172.811 173.548 214.557 172.303C326.783 168.955 438.833 165.176 551.248 164.052C682.369 162.742 813.899 163.468 944.864 167.509C1002.3 169.281 1060.74 171.954 1116.65 179.884C1122.23 180.675 1158.75 186.973 1129.82 187.577C1062.24 188.986 993.55 183.635 926.227 181.333C744.823 175.133 561.308 180.813 380.877 191.925C312.28 196.149 243.769 201.035 175.358 206.084C152.222 207.792 85.8729 209.31 107.088 214.669C137.214 222.279 191.594 217.31 221.141 216.62C345.714 213.71 470.061 208.808 594.702 206.586C701.021 204.69 806.936 204.714 913.16 207.98C983.572 210.144 1057.39 210.896 1126.78 218.738C1126.87 218.748 1169.39 223.919 1155.04 229.386C1136.37 236.502 1087.22 230.104 1069.55 229.107C905.583 219.851 745.635 212.084 580.42 215.449C484.348 217.407 388.48 221.485 293.159 228.382C250.622 231.46 198.058 232.018 157.834 241.427C128.689 248.244 181.108 251.385 183.36 251.461C243.803 253.5 305.016 249.376 365.278 247.559C553.149 241.892 743.044 239.803 930.684 249.231C947.498 250.076 978.682 251.902 997.131 254.137C1001.47 254.663 1012.48 256.55 1008.68 257.816C986.804 265.092 938.413 261.513 914.68 261.829C766.515 263.804 618.567 260.429 470.823 269.188C419.876 272.208 365.844 274.845 316.659 283.347C308.812 284.703 291.478 285.996 295.185 290.036C301.41 296.823 322.119 293.783 335.904 294.273C513.453 300.586 693.512 294.278 871.125 291.932" stroke="white" stroke-opacity="0.9" stroke-width="35" stroke-linecap="round" stroke-linejoin="round"/>
</svg>
